# Blender 4.1.1
# www.blender.org
mtllib Position_test.mtl
o Cube
v -0.500000 -0.500000 0.500000
v -0.500000 0.500000 0.500000
v -0.500000 -0.500000 -0.500000
v -0.500000 0.500000 -0.500000
v 0.500000 -0.500000 0.500000
v 0.500000 0.500000 0.500000
v 0.500000 -0.500000 -0.500000
v 0.500000 0.500000 -0.500000
v 1.500000 0.500000 -0.500000
v 1.500000 -0.500000 -0.500000
v 1.500000 -0.500000 0.500000
v 1.500000 0.500000 0.500000
v -0.500000 0.500000 -1.500000
v -0.500000 -0.500000 -1.500000
v 0.500000 -0.500000 -1.500000
v 0.500000 0.500000 -1.500000
v -0.500000 1.500000 0.500000
v -0.500000 1.500000 -0.500000
v 0.500000 1.500000 -0.500000
v 0.500000 1.500000 0.500000
v 1.500000 0.250000 -0.250000
v 1.500000 -0.250000 -0.250000
v 1.500000 -0.250000 0.250000
v 1.500000 0.250000 0.250000
v 0.125000 0.250000 -1.875000
v -0.125000 0.250000 -1.875000
v 0.125000 0.250000 -1.625000
v -0.125000 0.250000 -1.625000
v -0.250000 0.250000 -1.500000
v -0.250000 -0.250000 -1.500000
v 0.250000 -0.250000 -1.500000
v 0.250000 0.250000 -1.500000
v -0.250000 0.250000 -2.000000
v -0.250000 -0.250000 -2.000000
v 0.250000 -0.250000 -2.000000
v 0.250000 0.250000 -2.000000
v -0.250000 1.500000 0.250000
v -0.250000 1.500000 -0.250000
v 0.250000 1.500000 -0.250000
v 0.250000 1.500000 0.250000
v -0.250000 2.000000 0.250000
v -0.250000 2.000000 -0.250000
v 0.250000 2.000000 -0.250000
v 0.250000 2.000000 0.250000
v 1.900000 0.250000 -0.250000
v 2.000000 0.150000 -0.150000
v 2.000000 -0.150000 -0.150000
v 1.900000 -0.250000 -0.250000
v 2.000000 -0.150000 0.150000
v 1.900000 -0.250000 0.250000
v 1.900000 0.250000 0.250000
v 2.000000 0.150000 0.150000
v 0.125000 0.500000 -1.875000
v 0.125000 0.500000 -1.625000
v -0.125000 0.500000 -1.875000
v -0.125000 0.500000 -1.625000
v 0.250000 0.125000 -1.625000
v 0.250000 -0.125000 -1.625000
v 0.250000 0.125000 -1.875000
v 0.250000 -0.125000 -1.875000
v 0.500000 0.125000 -1.625000
v 0.500000 -0.125000 -1.625000
v 0.500000 0.125000 -1.875000
v 0.500000 -0.125000 -1.875000
v -0.125000 0.125000 -2.000000
v -0.125000 -0.125000 -2.000000
v 0.125000 -0.125000 -2.000000
v 0.125000 0.125000 -2.000000
v -0.125000 0.125000 -2.250000
v -0.125000 -0.125000 -2.250000
v 0.125000 -0.125000 -2.250000
v 0.125000 0.125000 -2.250000
v -0.250000 0.125000 -1.625000
v -0.250000 -0.125000 -1.625000
v -0.250000 0.125000 -1.875000
v -0.250000 -0.125000 -1.875000
v -0.500000 0.125000 -1.625000
v -0.500000 -0.125000 -1.625000
v -0.500000 0.125000 -1.875000
v -0.500000 -0.125000 -1.875000
v 0.125000 -0.250000 -1.625000
v -0.125000 -0.250000 -1.625000
v 0.125000 -0.250000 -1.875000
v -0.125000 -0.250000 -1.875000
v 0.125000 -0.500000 -1.625000
v -0.125000 -0.500000 -1.625000
v 0.125000 -0.500000 -1.875000
v -0.125000 -0.500000 -1.875000
vn -1.0000 -0.0000 -0.0000
vn 1.0000 -0.0000 -0.0000
vn -0.0000 1.0000 -0.0000
vn -0.0000 -0.0000 1.0000
vn -0.0000 -1.0000 -0.0000
vn -0.0000 -0.0000 -1.0000
vn 0.7071 -0.0000 -0.7071
vn 0.7071 -0.7071 -0.0000
vn 0.7071 0.7071 -0.0000
vn 0.7071 -0.0000 0.7071
vt 0.625000 0.000000
vt 0.375000 0.250000
vt 0.375000 0.000000
vt 0.375000 0.500000
vt 0.625000 0.500000
vt 0.625000 0.750000
vt 0.375000 1.000000
vt 0.375000 0.750000
vt 0.125000 0.750000
vt 0.125000 0.500000
vt 0.875000 0.500000
vt 0.625000 0.250000
vt 0.625000 1.000000
vt 0.575000 0.550000
vt 0.425000 0.700000
vt 0.425000 0.550000
vt 0.575000 0.700000
vt 0.875000 0.750000
s 0
usemtl RedX
f 6/6/3 9/5/3 8/5/3
f 11/8/2 24/6/2 12/6/2
f 8/5/6 10/4/6 7/4/6
f 5/8/4 12/6/4 6/6/4
f 7/4/5 11/8/5 5/8/5
f 10/4/2 23/8/2 11/8/2
f 12/6/2 21/5/2 9/5/2
f 9/5/2 22/4/2 10/4/2
f 24/6/3 45/5/3 21/5/3
f 23/8/4 51/6/4 24/6/4
f 22/4/5 50/8/5 23/8/5
f 46/14/2 49/15/2 47/16/2
f 47/16/7 45/5/7 46/14/7
f 48/4/8 49/15/8 50/8/8
f 51/6/9 46/14/9 45/5/9
f 50/8/10 52/17/10 51/6/10
f 21/5/6 48/4/6 22/4/6
f 6/6/3 12/6/3 9/5/3
f 11/8/2 23/8/2 24/6/2
f 8/5/6 9/5/6 10/4/6
f 5/8/4 11/8/4 12/6/4
f 7/4/5 10/4/5 11/8/5
f 10/4/2 22/4/2 23/8/2
f 12/6/2 24/6/2 21/5/2
f 9/5/2 21/5/2 22/4/2
f 24/6/3 51/6/3 45/5/3
f 23/8/4 50/8/4 51/6/4
f 22/4/5 48/4/5 50/8/5
f 46/14/2 52/17/2 49/15/2
f 47/16/7 48/4/7 45/5/7
f 48/4/8 47/16/8 49/15/8
f 51/6/9 52/17/9 46/14/9
f 50/8/10 49/15/10 52/17/10
f 21/5/6 45/5/6 48/4/6
usemtl GreenY
f 7/4/2 16/5/2 8/5/2
f 16/5/6 29/11/6 13/11/6
f 3/10/5 15/4/5 7/4/5
f 8/5/3 13/11/3 4/11/3
f 4/12/1 14/2/1 3/2/1
f 27/5/4 56/11/4 28/11/4
f 31/4/2 57/5/2 32/5/2
f 13/12/6 30/2/6 14/2/6
f 15/4/6 32/5/6 16/5/6
f 14/10/6 31/4/6 15/4/6
f 36/5/6 65/12/6 33/12/6
f 34/10/5 82/10/5 30/10/5
f 33/12/3 25/5/3 36/5/3
f 30/10/1 76/10/1 34/10/1
f 29/12/3 26/12/3 33/12/3
f 32/5/3 28/11/3 29/11/3
f 36/5/3 27/5/3 32/5/3
f 54/5/3 55/11/3 56/11/3
f 25/5/2 54/5/2 27/5/2
f 28/12/1 55/12/1 26/12/1
f 26/12/6 53/5/6 25/5/6
f 60/4/5 62/4/5 58/4/5
f 35/4/2 58/4/2 31/4/2
f 32/5/2 59/5/2 36/5/2
f 36/5/2 60/4/2 35/4/2
f 62/4/2 63/5/2 61/5/2
f 58/4/4 61/5/4 57/5/4
f 57/5/3 63/5/3 59/5/3
f 59/5/6 64/4/6 60/4/6
f 68/5/3 69/12/3 65/12/3
f 33/12/6 66/2/6 34/2/6
f 35/4/6 68/5/6 36/5/6
f 34/10/6 67/4/6 35/4/6
f 69/12/6 71/4/6 70/2/6
f 65/12/1 70/2/1 66/2/1
f 67/4/2 72/5/2 68/5/2
f 66/10/5 71/4/5 67/4/5
f 75/12/3 77/12/3 73/12/3
f 34/2/1 75/12/1 33/12/1
f 33/12/1 73/12/1 29/12/1
f 29/12/1 74/2/1 30/2/1
f 77/12/1 80/2/1 78/2/1
f 76/2/6 79/12/6 75/12/6
f 74/10/5 80/10/5 76/10/5
f 73/12/4 78/2/4 74/2/4
f 84/10/1 86/10/1 82/10/1
f 30/10/5 81/4/5 31/4/5
f 31/4/5 83/4/5 35/4/5
f 35/4/5 84/10/5 34/10/5
f 86/10/5 87/4/5 85/4/5
f 83/4/6 88/10/6 84/10/6
f 81/4/2 87/4/2 83/4/2
f 82/10/4 85/4/4 81/4/4
f 7/4/2 15/4/2 16/5/2
f 16/5/6 32/5/6 29/11/6
f 3/10/5 14/10/5 15/4/5
f 8/5/3 16/5/3 13/11/3
f 4/12/1 13/12/1 14/2/1
f 27/5/4 54/5/4 56/11/4
f 31/4/2 58/4/2 57/5/2
f 13/12/6 29/12/6 30/2/6
f 15/4/6 31/4/6 32/5/6
f 14/10/6 30/10/6 31/4/6
f 36/5/6 68/5/6 65/12/6
f 34/10/5 84/10/5 82/10/5
f 33/12/3 26/12/3 25/5/3
f 30/10/1 74/10/1 76/10/1
f 29/12/3 28/12/3 26/12/3
f 32/5/3 27/5/3 28/11/3
f 36/5/3 25/5/3 27/5/3
f 54/5/3 53/5/3 55/11/3
f 25/5/2 53/5/2 54/5/2
f 28/12/1 56/12/1 55/12/1
f 26/12/6 55/12/6 53/5/6
f 60/4/5 64/4/5 62/4/5
f 35/4/2 60/4/2 58/4/2
f 32/5/2 57/5/2 59/5/2
f 36/5/2 59/5/2 60/4/2
f 62/4/2 64/4/2 63/5/2
f 58/4/4 62/4/4 61/5/4
f 57/5/3 61/5/3 63/5/3
f 59/5/6 63/5/6 64/4/6
f 68/5/3 72/5/3 69/12/3
f 33/12/6 65/12/6 66/2/6
f 35/4/6 67/4/6 68/5/6
f 34/10/6 66/10/6 67/4/6
f 69/12/6 72/5/6 71/4/6
f 65/12/1 69/12/1 70/2/1
f 67/4/2 71/4/2 72/5/2
f 66/10/5 70/10/5 71/4/5
f 75/12/3 79/12/3 77/12/3
f 34/2/1 76/2/1 75/12/1
f 33/12/1 75/12/1 73/12/1
f 29/12/1 73/12/1 74/2/1
f 77/12/1 79/12/1 80/2/1
f 76/2/6 80/2/6 79/12/6
f 74/10/5 78/10/5 80/10/5
f 73/12/4 77/12/4 78/2/4
f 84/10/1 88/10/1 86/10/1
f 30/10/5 82/10/5 81/4/5
f 31/4/5 81/4/5 83/4/5
f 35/4/5 83/4/5 84/10/5
f 86/10/5 88/10/5 87/4/5
f 83/4/6 87/4/6 88/10/6
f 81/4/2 85/4/2 87/4/2
f 82/10/4 86/10/4 85/4/4
usemtl BlueZ
f 8/5/2 20/6/2 6/6/2
f 20/6/3 37/13/3 17/13/3
f 2/1/1 18/12/1 4/12/1
f 6/6/4 17/13/4 2/13/4
f 4/11/6 19/5/6 8/5/6
f 39/5/2 44/6/2 40/6/2
f 18/11/3 39/5/3 19/5/3
f 19/5/3 40/6/3 20/6/3
f 17/1/3 38/12/3 18/12/3
f 42/11/3 44/6/3 43/5/3
f 37/1/1 42/12/1 38/12/1
f 40/6/4 41/13/4 37/13/4
f 38/11/6 43/5/6 39/5/6
f 8/5/2 19/5/2 20/6/2
f 20/6/3 40/6/3 37/13/3
f 2/1/1 17/1/1 18/12/1
f 6/6/4 20/6/4 17/13/4
f 4/11/6 18/11/6 19/5/6
f 39/5/2 43/5/2 44/6/2
f 18/11/3 38/11/3 39/5/3
f 19/5/3 39/5/3 40/6/3
f 17/1/3 37/1/3 38/12/3
f 42/11/3 41/18/3 44/6/3
f 37/1/1 41/1/1 42/12/1
f 40/6/4 44/6/4 41/13/4
f 38/11/6 42/11/6 43/5/6
usemtl White
f 2/1/1 3/2/1 1/3/1
f 6/6/4 1/7/4 5/8/4
f 7/4/5 1/9/5 3/10/5
f 2/1/1 4/12/1 3/2/1
f 6/6/4 2/13/4 1/7/4
f 7/4/5 5/8/5 1/9/5
